<?xml version="1.0" encoding="iso-8859-1"?>
<!-- Generator: Adobe Illustrator 18.0.0, SVG Export Plug-In . SVG Version: 6.00 Build 0)  -->
<!DOCTYPE svg PUBLIC "-//W3C//DTD SVG 1.1//EN" "http://www.w3.org/Graphics/SVG/1.1/DTD/svg11.dtd">
<svg version="1.1" id="Capa_1" xmlns="http://www.w3.org/2000/svg" xmlns:xlink="http://www.w3.org/1999/xlink" x="0px" y="0px"
	 viewBox="0 0 256.137 256.137" style="enable-background:new 0 0 256.137 256.137;" xml:space="preserve">
<path d="M200.238,57.263C179.721,20.337,154.091,0,128.068,0s-51.652,20.337-72.17,57.263
	c-16.955,30.518-27.911,68.538-27.911,96.862c0,27.337,10.247,52.933,28.855,72.071c18.771,19.308,44.066,29.94,71.227,29.94
	s52.456-10.633,71.227-29.94c18.607-19.139,28.854-44.734,28.854-72.071C228.149,125.801,217.193,87.78,200.238,57.263z
	 M128.068,244.137c-49.392,0-88.081-39.538-88.081-90.012C39.987,100.581,81.154,12,128.068,12s88.081,88.581,88.081,142.125
	C216.149,204.599,177.46,244.137,128.068,244.137z"/>
<g>
</g>
<g>
</g>
<g>
</g>
<g>
</g>
<g>
</g>
<g>
</g>
<g>
</g>
<g>
</g>
<g>
</g>
<g>
</g>
<g>
</g>
<g>
</g>
<g>
</g>
<g>
</g>
<g>
</g>
</svg>
